<svg width="141" height="214" viewBox="0 0 141 214" fill="none" xmlns="http://www.w3.org/2000/svg">
<g clip-path="url(#clip0_1_75)">
<path d="M71.1923 175.704C82.8635 175.704 92.7264 168.316 95.9676 158.164H46.4188C49.6583 168.316 59.5211 175.704 71.1923 175.704Z" fill="black"/>
<path d="M71.2135 21.8231C77.0499 21.8231 81.7813 16.9378 81.7813 10.9115C81.7813 4.88527 77.0499 0 71.2135 0C65.377 0 60.6456 4.88527 60.6456 10.9115C60.6456 16.9378 65.377 21.8231 71.2135 21.8231Z" fill="black"/>
<path d="M71.2135 23.1326C59.1017 23.1326 48.9621 31.0955 46.1245 41.8396H96.3024C93.4648 31.0955 83.3235 23.1326 71.2135 23.1326Z" fill="black"/>
<path d="M95.6292 63.3754C88.5475 79.0774 48.0421 96.7569 48.0421 114.717V98.9829C48.0421 84.4125 87.6099 62.3391 92.3968 52.4146H75.5192C69.0016 57.2226 48.0421 70.3496 48.0421 84.2856V70.1487C48.0421 60.6841 55.0321 55.8214 57.2158 52.4146H44.5171V147.589H52.3848C64.4367 136.705 92.5977 120.438 95.6292 107.143V118.33C95.6292 131.413 75.9387 142.439 70.6565 147.589H89.0921C92.2963 144.349 95.6292 138.628 95.6292 135.641V147.589H99.1541V52.4146H95.6292V63.3754ZM95.6292 90.9989C92.2787 107.355 54.9757 124.072 48.0421 138.803V129.164C48.0421 114.174 89.4799 93.8506 95.6292 77.8031V90.9989Z" fill="black"/>
<path d="M42.7546 50.6521H48.0421H57.8767H77.4297H92.8762H95.6292H99.1541V50.1586V47.1271V43.6021H42.7546V50.6521Z" fill="black"/>
<path d="M42.7546 156.401H99.1541V154.639V151.168V149.351H42.7546V156.401Z" fill="black"/>
<path d="M21.0906 208.233H16.7128V198.624L10.5453 205.782L4.37782 198.624V208.233H0V187.473L10.5453 199.367L21.0906 187.473V208.233ZM27.2581 213.905L29.8738 207.682L23.3759 193.144H28.1392L31.9663 202.781L35.4906 193.144H40.2539L31.8011 213.905H27.2581ZM57.1732 196.146C56.7052 196.88 56.0948 197.403 55.3422 197.715C56.26 198.027 57.0493 198.624 57.7101 199.505C58.3709 200.386 58.7013 201.349 58.7013 202.396C58.7013 204.47 58.0405 205.961 56.7189 206.87C55.3973 207.779 53.7086 208.233 51.6528 208.233H42.9522V188.106H51.3224C55.691 188.106 57.8753 189.969 57.8753 193.695C57.8753 194.595 57.6413 195.411 57.1732 196.146ZM51.405 196.091C52.1208 196.091 52.6486 195.87 52.9881 195.43C53.3277 194.989 53.4975 194.466 53.4975 193.86C53.4975 193.328 53.2956 192.865 52.8918 192.47C52.4879 192.075 52.0015 191.878 51.4325 191.878H47.33V196.091H51.405ZM53.6352 203.8C54.1124 203.359 54.351 202.818 54.351 202.175C54.351 201.533 54.1124 200.992 53.6352 200.551C53.1579 200.11 52.4696 199.89 51.5702 199.89H47.33V204.461H51.6528C52.4971 204.461 53.1579 204.24 53.6352 203.8ZM73.5694 206.718C73.2206 207.196 72.6195 207.622 71.766 207.999C70.9124 208.375 69.9809 208.563 68.9713 208.563C67.4111 208.563 66.0574 208.214 64.9101 207.517C63.7629 206.819 62.8864 205.87 62.2807 204.667C61.6749 203.465 61.3721 202.13 61.3721 200.661C61.3721 199.193 61.6749 197.857 62.2807 196.655C62.8864 195.453 63.7629 194.503 64.9101 193.805C66.0574 193.108 67.4111 192.759 68.9713 192.759C70.0176 192.759 70.9399 192.938 71.7384 193.296C72.5369 193.654 73.1472 194.108 73.5694 194.659V193.089H77.6443V208.233H73.5694V206.718ZM72.6057 197.564C71.8531 196.765 70.8436 196.366 69.577 196.366C68.2921 196.366 67.278 196.765 66.5346 197.564C65.7912 198.362 65.4195 199.395 65.4195 200.661C65.4195 201.891 65.8004 202.91 66.5621 203.717C67.3239 204.525 68.3289 204.929 69.577 204.929C70.8619 204.929 71.8761 204.548 72.6195 203.786C73.3629 203.024 73.7346 201.983 73.7346 200.661C73.7346 199.395 73.3583 198.362 72.6057 197.564ZM88.9331 197.04C88.1438 197.233 87.4187 197.687 86.7579 198.403C86.0971 199.119 85.7667 200.166 85.7667 201.542V208.233H81.6642V193.089H85.7667V195.099C86.4459 194.2 87.2765 193.59 88.2585 193.268C89.2405 192.947 90.1354 192.796 90.943 192.814V196.834C90.3923 196.779 89.7224 196.848 88.9331 197.04ZM93.3935 208.233V187.418H97.4684V194.659C97.8906 194.108 98.501 193.654 99.2994 193.296C100.098 192.938 101.02 192.759 102.067 192.759C103.627 192.759 104.98 193.108 106.128 193.805C107.275 194.503 108.151 195.453 108.757 196.655C109.363 197.857 109.666 199.193 109.666 200.661C109.666 202.13 109.363 203.465 108.757 204.667C108.151 205.87 107.275 206.819 106.128 207.517C104.98 208.214 103.627 208.563 102.067 208.563C101.057 208.563 100.125 208.375 99.2719 207.999C98.4183 207.622 97.8172 207.196 97.4684 206.718V208.233H93.3935ZM98.4184 203.786C99.1618 204.548 100.176 204.929 101.461 204.929C102.709 204.929 103.714 204.525 104.476 203.717C105.237 202.91 105.618 201.891 105.618 200.661C105.618 199.395 105.247 198.362 104.503 197.564C103.76 196.765 102.746 196.366 101.461 196.366C100.194 196.366 99.1847 196.765 98.4321 197.564C97.6795 198.362 97.3032 199.395 97.3032 200.661C97.3032 201.983 97.6749 203.024 98.4184 203.786ZM116.893 207.875C115.636 207.379 114.558 206.539 113.658 205.356C112.759 204.172 112.309 202.625 112.309 200.716C112.309 198.807 112.763 197.265 113.672 196.091C114.58 194.916 115.668 194.081 116.935 193.585C118.201 193.089 119.403 192.842 120.541 192.842C121.863 192.842 123.12 193.135 124.314 193.723C125.507 194.31 126.484 195.173 127.246 196.311C128.008 197.449 128.407 198.798 128.444 200.358C128.444 200.835 128.434 201.248 128.416 201.597C128.398 201.946 128.379 202.166 128.361 202.258H116.411C116.632 203.323 117.182 204.048 118.063 204.433C118.945 204.819 119.771 205.011 120.541 205.011C121.533 205.011 122.322 204.832 122.909 204.474C123.497 204.117 124.002 203.708 124.424 203.249L127.618 205.094C125.892 207.444 123.533 208.618 120.541 208.618C119.367 208.618 118.151 208.37 116.893 207.875ZM117.733 197.288C117.017 197.848 116.613 198.532 116.522 199.339H124.093C124.038 198.862 123.855 198.403 123.543 197.963C123.231 197.522 122.813 197.16 122.29 196.875C121.767 196.591 121.175 196.448 120.514 196.448C119.376 196.448 118.449 196.728 117.733 197.288ZM138.989 197.04C138.2 197.233 137.475 197.687 136.814 198.403C136.153 199.119 135.823 200.166 135.823 201.542V208.233H131.72V193.089H135.823V195.099C136.502 194.2 137.332 193.59 138.314 193.268C139.296 192.947 140.191 192.796 140.999 192.814V196.834C140.448 196.779 139.778 196.848 138.989 197.04Z" fill="black"/>
</g>
<defs>
<clipPath id="clip0_1_75">
<rect width="140.999" height="213.905" fill="white"/>
</clipPath>
</defs>
</svg>
